<svg width="1200" height="630" viewBox="0 0 1200 630" fill="none" xmlns="http://www.w3.org/2000/svg">
<rect width="1200" height="630" fill="black"/>
<path d="M865 314.5L599.5 49L334.001 314.5L599.5 579.999L865 314.5Z" fill="black"/>
<path d="M834.025 283.986L727.825 390.186L758.8 421.161L864.999 314.961L834.025 283.986Z" fill="white"/>
<path d="M864.998 314.961L758.798 208.761L727.823 239.736L834.023 345.936L864.998 314.961Z" fill="white"/>
<path d="M630.474 549.484L524.274 443.284L493.299 474.259L599.499 580.459L630.474 549.484Z" fill="white"/>
<path d="M674.724 443.284L568.524 549.484L599.499 580.459L705.699 474.259L674.724 443.284Z" fill="white"/>
<path d="M471.175 390.185L364.975 283.985L334 314.96L440.2 421.16L471.175 390.185Z" fill="white"/>
<path d="M440.2 208.76L334 314.96L364.975 345.935L471.175 239.735L440.2 208.76Z" fill="white"/>
<path d="M705.699 155.661L599.499 49.4614L568.524 80.4364L674.724 186.636L705.699 155.661Z" fill="white"/>
<path d="M599.5 49.4607L493.3 155.661L524.275 186.635L630.474 80.4357L599.5 49.4607Z" fill="white"/>
<path d="M622.993 390.055L572.041 323.127V390.055H535.122V238.495H572.041V304.991L622.561 238.495H665.956L607.232 312.764L668.115 390.055H622.993Z" fill="white"/>
</svg>
